<?xml version="1.0" encoding="iso-8859-1"?>
<!-- Generator: Adobe Illustrator 19.0.0, SVG Export Plug-In . SVG Version: 6.00 Build 0)  -->
<svg version="1.1" id="Capa_1" xmlns="http://www.w3.org/2000/svg" xmlns:xlink="http://www.w3.org/1999/xlink" x="0px" y="0px"
	 viewBox="0 0 512 512" style="enable-background:new 0 0 512 512;" xml:space="preserve">
<g>
	<g>
		<path d="M484.662,34.972H27.338C12.264,34.972,0,47.236,0,62.311v116.044c0,4.142,3.358,7.5,7.5,7.5s7.5-3.358,7.5-7.5v-53.472
			h482v21.471c0,4.142,3.357,7.5,7.5,7.5c4.143,0,7.5-3.358,7.5-7.5V62.311C512,47.236,499.736,34.972,484.662,34.972z
			 M496.999,109.883H15V62.311c0-6.803,5.535-12.338,12.338-12.338h457.323c6.803,0,12.338,5.535,12.338,12.338V109.883z"/>
	</g>
</g>
<g>
	<g>
		<path d="M504.5,169.473c-4.143,0-7.5,3.358-7.5,7.5V460.46c0,0.865-0.703,1.568-1.567,1.568h-53.122c-4.143,0-7.5,3.358-7.5,7.5
			s3.357,7.5,7.5,7.5h53.122c9.136,0,16.567-7.432,16.567-16.568V176.973C512,172.831,508.642,169.473,504.5,169.473z"/>
	</g>
</g>
<g>
	<g>
		<path d="M411.693,462.028H16.568c-0.865,0-1.568-0.704-1.568-1.568V208.973c0-4.142-3.358-7.5-7.5-7.5s-7.5,3.358-7.5,7.5v251.486
			c0,9.136,7.432,16.568,16.568,16.568h395.125c4.143,0,7.5-3.358,7.5-7.5S415.836,462.028,411.693,462.028z"/>
	</g>
</g>
<g>
	<g>
		<path d="M341.693,73.813H74.16c-4.142,0-7.5,3.358-7.5,7.5s3.358,7.5,7.5,7.5h267.534c4.143,0,7.5-3.358,7.5-7.5
			S345.836,73.813,341.693,73.813z"/>
	</g>
</g>
<g>
	<g>
		<path d="M377.964,71.776c-4.143,0-7.5,3.358-7.5,7.5v1.303c0,4.142,3.357,7.5,7.5,7.5s7.5-3.358,7.5-7.5v-1.303
			C385.464,75.134,382.107,71.776,377.964,71.776z"/>
	</g>
</g>
<g>
	<g>
		<path d="M407.902,71.776c-4.143,0-7.5,3.358-7.5,7.5v1.303c0,4.142,3.357,7.5,7.5,7.5c4.143,0,7.5-3.358,7.5-7.5v-1.303
			C415.402,75.134,412.045,71.776,407.902,71.776z"/>
	</g>
</g>
<g>
	<g>
		<path d="M437.84,71.776c-4.143,0-7.5,3.358-7.5,7.5v1.303c0,4.142,3.357,7.5,7.5,7.5s7.5-3.358,7.5-7.5v-1.303
			C445.34,75.134,441.983,71.776,437.84,71.776z"/>
	</g>
</g>
<g>
	<g>
		<path d="M411.148,314.495H100.853c-8.409,0-15.25,6.841-15.25,15.25v32.134c0,8.409,6.841,15.25,15.25,15.25h310.295
			c8.409,0,15.25-6.841,15.25-15.25v-32.134C426.398,321.336,419.557,314.495,411.148,314.495z M411.398,361.88
			c0,0.138-0.112,0.25-0.25,0.25H100.853c-0.138,0-0.25-0.112-0.25-0.25v-32.134c0-0.138,0.112-0.25,0.25-0.25h310.295
			c0.138,0,0.25,0.112,0.25,0.25V361.88z"/>
	</g>
</g>
<g>
	<g>
		<path d="M142.443,246.242h-24.906l18.615-41.303c1.703-3.776,0.022-8.218-3.755-9.919c-3.776-1.703-8.218-0.021-9.919,3.756
			l-23.385,51.885c-1.046,2.321-0.844,5.014,0.538,7.152c1.382,2.138,3.753,3.43,6.299,3.43h29.013v20.397
			c0,4.142,3.358,7.5,7.5,7.5c4.142,0,7.5-3.358,7.5-7.5v-27.898C149.943,249.6,146.585,246.242,142.443,246.242z"/>
	</g>
</g>
<g>
	<g>
		<path d="M262.31,246.242h-24.907l18.615-41.303c1.703-3.776,0.021-8.218-3.755-9.919c-3.775-1.703-8.217-0.021-9.919,3.756
			l-23.385,51.885c-1.046,2.321-0.844,5.014,0.538,7.152c1.382,2.138,3.753,3.43,6.299,3.43h29.014v20.397
			c0,4.142,3.357,7.5,7.5,7.5c4.143,0,7.5-3.358,7.5-7.5v-27.898C269.81,249.6,266.453,246.242,262.31,246.242z"/>
	</g>
</g>
<g>
	<g>
		<path d="M204.114,194.357c-4.142,0-7.5,3.358-7.5,7.5v72.283h-23.259v-72.283c0-4.142-3.358-7.5-7.5-7.5s-7.5,3.358-7.5,7.5
			v79.783c0,4.142,3.358,7.5,7.5,7.5h38.259c4.142,0,7.5-3.358,7.5-7.5v-79.783C211.614,197.715,208.256,194.357,204.114,194.357z"
			/>
	</g>
</g>
<g>
	<g>
		<path d="M331.603,215.529h-25.677c-4.143,0-7.5,3.358-7.5,7.5s3.358,7.5,7.5,7.5h25.677c4.143,0,7.5-3.358,7.5-7.5
			S335.746,215.529,331.603,215.529z"/>
	</g>
</g>
<g>
	<g>
		<path d="M390.016,251.37h-84.09c-4.143,0-7.5,3.358-7.5,7.5c0,4.142,3.358,7.5,7.5,7.5h84.09c4.143,0,7.5-3.358,7.5-7.5
			C397.516,254.729,394.159,251.37,390.016,251.37z"/>
	</g>
</g>
<g>
	<g>
		<path d="M390.016,274.14h-84.09c-4.143,0-7.5,3.358-7.5,7.5c0,4.142,3.358,7.5,7.5,7.5h84.09c4.143,0,7.5-3.358,7.5-7.5
			C397.516,277.498,394.159,274.14,390.016,274.14z"/>
	</g>
</g>
<g>
</g>
<g>
</g>
<g>
</g>
<g>
</g>
<g>
</g>
<g>
</g>
<g>
</g>
<g>
</g>
<g>
</g>
<g>
</g>
<g>
</g>
<g>
</g>
<g>
</g>
<g>
</g>
<g>
</g>
</svg>
