<svg height="512" viewBox="0 0 128 128" width="512" xmlns="http://www.w3.org/2000/svg"><g id="Circle_Grid" data-name="Circle Grid"><circle cx="64" cy="64" fill="#ef5261" r="64"/></g><g id="icon"><path d="m105 53.218v47.628h-81.983l29.828-26.035-29.845-21.593 41-34.064z" fill="#eab54e"/><path d="m30.512 27.2h66.548v51.66h-66.548z" fill="#eeefee"/><g fill="#dbd8dd"><path d="m35.787 32.449h28.552v1.737h-28.552z"/><path d="m35.787 41.144h35.129v1.737h-35.129z"/><path d="m76.554 41.144h15.232v1.737h-15.232z"/><path d="m35.787 49.838h13.22v1.737h-13.22z"/><path d="m52.979 49.838h38.807v1.737h-38.807z"/><path d="m35.787 58.533h27.698v1.737h-27.698z"/><path d="m68.482 58.533h23.304v1.737h-23.304z"/><path d="m91.786 67.228v1.737h-55.999v-1.737"/></g><path d="m75.155 74.811 29.828 26.035h.017v-47.628z" fill="#f6c863"/><path d="m52.845 74.811-29.828 26.035h-.017v-47.628z" fill="#f6c863"/><path d="m104.983 100.846h-81.966l29.828-26.035h22.31z" fill="#eab54e"/></g></svg>